<svg width="590" height="664" viewBox="0 0 590 664" fill="none" xmlns="http://www.w3.org/2000/svg">
<path fill-rule="evenodd" clip-rule="evenodd" d="M49.3521 238.455C49.3503 238.329 49.3632 238.204 49.3865 238.081C83.7329 57.4 166.133 0 315.369 0C464.657 0 617.857 117.007 585.678 334.002C574.737 374.049 558.984 406.299 544.138 436.695C512.98 500.486 485.811 556.11 515.465 658.489C516.213 661.068 514.445 663.75 511.76 663.75H202.792C202.058 663.75 201.446 663.358 201.13 662.696C197.743 655.606 197.621 646.253 197.494 636.454C197.113 607.225 196.68 574.023 109.418 585.036C109.099 585.036 108.612 585.071 107.977 585.118C100.095 585.692 69.364 587.931 51.4951 544.615C47.0519 534.997 50.3583 523.184 53.357 512.47C56.3075 501.928 58.9601 492.451 53.6403 487.175C45.8821 481.886 36.4778 474.411 47.2044 459.519C47.3187 459.348 47.2596 458.919 47.1996 458.484C47.1373 458.032 47.0741 457.573 47.2044 457.392C36.4778 453.137 23.606 431.863 42.9138 416.971C43.0447 411.435 33.4429 406.403 23.29 401.082C11.8226 395.073 -0.347961 388.695 0.0076294 380.805C0.992249 358.962 16.6638 338.253 33.2386 316.351C41.7927 305.048 50.5873 293.426 57.7278 281.167C57.8624 280.936 57.9491 280.679 57.9795 280.414C59.14 270.262 55.7762 260.608 52.9148 252.395C51.0529 247.051 49.4037 242.317 49.3521 238.455ZM143.697 283.304C142.514 279.986 141.469 277.053 141.469 274.671C162.922 164.165 214.426 129.062 307.731 129.062C401.035 129.062 496.785 200.567 476.674 333.175C469.835 357.648 459.99 377.356 450.711 395.932C431.043 435.305 413.917 469.588 433.358 533.36C433.555 534.005 433.157 534.688 432.483 534.688H237.788C237.061 534.688 236.44 534.301 236.141 533.639C234.21 529.358 234.136 523.81 234.059 518.007C233.821 500.145 233.55 479.854 179.011 486.585C178.812 486.585 178.508 486.606 178.111 486.634C173.185 486.985 153.978 488.353 142.809 461.883C140.032 456.005 142.099 448.786 143.973 442.239C145.817 435.796 147.475 430.005 144.15 426.781C139.301 423.549 133.424 418.98 140.128 409.88C140.199 409.775 140.162 409.513 140.125 409.247C140.086 408.971 140.046 408.69 140.128 408.58C133.424 405.98 125.379 392.979 137.446 383.878C137.528 380.495 131.527 377.42 125.181 374.168C118.014 370.496 110.408 366.598 110.63 361.777C111.245 348.428 121.04 335.773 131.399 322.388C136.796 315.415 142.347 308.244 146.832 300.673C147.643 294.379 145.509 288.389 143.697 283.304Z" fill="#F8F9F8"/>
</svg>
