<svg width="48" height="48" viewBox="0 0 48 48" fill="none" xmlns="http://www.w3.org/2000/svg">
<path d="M0 24C0 10.7452 10.7452 0 24 0C37.2548 0 48 10.7452 48 24C48 37.2548 37.2548 48 24 48C10.7452 48 0 37.2548 0 24Z" fill="#3963BC"/>
<path d="M20.3996 15.6139L21.2835 16.3281C22.7273 17.4947 22.9096 19.624 21.6852 21.0194L21.5625 21.1592C20.685 22.1592 20.4509 23.6363 21.3275 24.6359C22.1658 25.5921 23.291 26.4333 24.9254 27.3496C26.2142 28.0723 27.8256 27.7294 28.7998 26.6192L28.8851 26.522C30.0464 25.1985 32.049 25.0268 33.4183 26.1332L34.2386 26.796C35.415 27.7466 35.8245 29.4057 34.9789 30.6592C34.1808 31.8422 33.2905 32.7678 32.2397 33.5243C31.5694 34.0069 30.7059 34.1141 29.9079 33.8998C22.1066 31.8049 17.3871 27.9987 14.0014 20.9489C13.7066 20.335 13.61 19.6292 13.8491 18.9914C14.354 17.6442 15.2983 16.5096 16.758 15.424C17.8468 14.6141 19.3449 14.7617 20.3996 15.6139Z" stroke="#F8F9F8"/>
<path d="M16.4116 16.7543L21.8155 21.1207" stroke="#F8F9F8"/>
<path d="M31.7646 16.4835L28.8626 19.365" stroke="#F8F9F8" stroke-linecap="round"/>
<path d="M33.3569 20.639L31.1504 21.4052" stroke="#F8F9F8" stroke-linecap="round"/>
<path d="M26.8091 17.0498L27.5937 14.8572" stroke="#F8F9F8" stroke-linecap="round"/>
<path d="M29.0205 26.9424L34.4243 31.3088" stroke="#F8F9F8"/>
</svg>
