<svg width="24" height="24" viewBox="0 0 24 24" fill="none" xmlns="http://www.w3.org/2000/svg">
<path fill-rule="evenodd" clip-rule="evenodd" d="M18.8278 9.49026C18.8396 9.42712 18.8315 9.36125 18.8192 9.2982C17.8528 4.34046 15.5617 2.76196 11.4328 2.76196C7.27717 2.76196 3.01267 6.019 3.90839 12.0593C4.21296 13.1741 4.65145 14.0718 5.06472 14.9179C5.62812 16.0714 6.14468 17.1289 6.21123 18.5096C6.27758 19.8863 7.20951 21.2382 8.58776 21.2382H13.9877C14.3641 21.2382 14.7007 21.02 14.711 20.6438C14.7125 20.5895 14.7132 20.5342 14.714 20.4784C14.7246 19.6648 14.7366 18.7406 17.1656 19.0471C17.1745 19.0471 17.1881 19.0481 17.2058 19.0494C17.4252 19.0654 18.2806 19.1277 18.778 17.922C18.9017 17.6542 18.8097 17.3254 18.7262 17.0272C18.644 16.7337 18.5702 16.4699 18.7183 16.3231C18.9343 16.1758 19.196 15.9678 18.8974 15.5532C18.8943 15.5485 18.8959 15.5365 18.8976 15.5244C18.8993 15.5118 18.9011 15.499 18.8974 15.494C19.196 15.3756 19.5543 14.7834 19.0169 14.3688C19.0132 14.2147 19.2805 14.0747 19.5631 13.9266C19.8823 13.7593 20.2211 13.5817 20.2112 13.3621C20.1838 12.7541 19.7476 12.1776 19.2862 11.568C19.0875 11.3054 18.8841 11.0366 18.7067 10.7565C18.6333 10.6406 18.5842 10.5082 18.5938 10.3713C18.6084 10.1611 18.6775 9.96264 18.7385 9.78767C18.7766 9.67841 18.8114 9.57832 18.8278 9.49026ZM16.2115 10.648C16.2444 10.5556 16.2735 10.474 16.2735 10.4077C15.6763 7.33158 14.2426 6.35447 11.6454 6.35447C9.04814 6.35447 6.38283 8.34488 6.94266 12.0362C7.13301 12.7174 7.40706 13.266 7.66536 13.7831C8.14327 14.7398 8.56724 15.5885 8.30735 16.9695C8.24338 17.3095 8.48684 17.6455 8.83276 17.6455H13.0207C13.3935 17.6455 13.6855 17.4243 13.6988 17.0517C13.7153 16.5923 13.8411 16.1353 15.2284 16.3065C15.234 16.3065 15.2425 16.3071 15.2535 16.3079C15.3906 16.3177 15.9253 16.3558 16.2362 15.6189C16.3135 15.4553 16.2559 15.2544 16.2038 15.0721C16.1524 14.8928 16.1063 14.7316 16.1988 14.6418C16.3338 14.5518 16.4974 14.4247 16.3108 14.1714C16.3088 14.1684 16.3099 14.1611 16.3109 14.1538C16.312 14.1461 16.3131 14.1382 16.3108 14.1352C16.4974 14.0628 16.7214 13.7009 16.3855 13.4476C16.3832 13.3534 16.5502 13.2678 16.7269 13.1773C16.9264 13.0751 17.1381 12.9666 17.1319 12.8324C17.1148 12.4608 16.8421 12.1085 16.5538 11.7359C16.4035 11.5418 16.249 11.3422 16.1242 11.1315C16.1016 10.9563 16.161 10.7895 16.2115 10.648Z" fill="#3963BC"/>
</svg>
