<svg width="400" height="399" viewBox="0 0 400 399" fill="none" xmlns="http://www.w3.org/2000/svg">
<g opacity="0.2">
<path d="M191.373 398.5C212.965 398.524 234.405 394.895 254.782 387.765C255.467 387.552 256.101 387.204 256.648 386.74C257.195 386.277 257.642 385.709 257.965 385.07C258.287 384.43 258.476 383.732 258.523 383.018C258.569 382.304 258.471 381.587 258.234 380.912C257.997 380.236 257.627 379.615 257.145 379.085C256.662 378.556 256.078 378.128 255.427 377.829C254.776 377.529 254.071 377.363 253.354 377.342C252.637 377.32 251.924 377.442 251.255 377.701C232.012 384.437 211.765 387.866 191.373 387.844C91.7319 387.844 10.687 306.923 10.687 207.462C10.6206 171.519 21.3678 136.384 41.5362 106.609C42.3286 105.438 42.6225 104.001 42.3535 102.614C42.0845 101.227 41.2745 100.003 40.1017 99.212C38.9289 98.421 37.4893 98.1275 36.0998 98.3961C34.7102 98.6647 33.4844 99.4733 32.6921 100.644C11.3246 132.178 -0.0645142 169.391 0.000366211 207.462C0.039856 312.809 85.8885 398.5 191.373 398.5Z" fill="#3963BC"/>
<path d="M85.3748 338.324C81.5318 342.161 71.9244 357.507 87.7833 371.408C103.642 385.309 170.394 359.412 198.256 345.511C226.118 331.611 223.722 284.613 223.722 284.613C223.722 284.613 210.996 334.987 156.431 347.416C101.865 359.846 85.3748 338.324 85.3748 338.324Z" fill="#EFEFEF"/>
<path d="M282.328 383.929H284.552C285.315 383.931 286.069 383.769 286.763 383.456C318.837 368.859 347.883 341.412 368.572 306.135C388.787 271.58 400 231.638 400 193.535C400 87.1114 313.256 0.500669 206.64 0.500669C165.959 0.393359 126.297 13.1932 93.3771 37.0527C92.8093 37.4625 92.328 37.9799 91.9605 38.5754C91.593 39.1709 91.3467 39.8328 91.2355 40.5233C91.1243 41.2139 91.1504 41.9195 91.3123 42.6C91.4743 43.2805 91.769 43.9224 92.1794 44.4892C92.5899 45.056 93.1082 45.5366 93.7047 45.9034C94.3012 46.2702 94.9642 46.5162 95.6559 46.6272C96.3477 46.7382 97.0545 46.7122 97.7361 46.5505C98.4177 46.3888 99.0607 46.0947 99.6285 45.6849C130.731 23.1412 168.204 11.0455 206.64 11.1431C307.374 11.1431 389.327 92.945 389.327 193.509C389.327 267.533 346.883 341.162 287.658 371.198V293.981C309.242 263.683 354.226 186.519 307.281 122.731C246.741 40.4162 131.754 85.7975 118.843 91.1975C81.5586 106.964 71.7142 136.461 64.8179 165.353C58.9744 189.922 61.0802 196.163 65.0284 204.375C65.8888 206.081 66.649 207.836 67.3053 209.63C70.2533 218.118 62.949 236.197 51.0121 249.953C44.1947 257.836 41.3914 263.736 41.9574 269.175C42.6154 275.587 47.7087 279.476 51.8149 282.616C53.4468 283.864 55.1578 285.073 56.816 286.256C60.0931 288.594 65.5154 292.457 66.3314 294.362C63.0411 302.482 62.5279 313.637 70.6218 320.824C69.2136 329.324 74.0173 333.135 77.018 335.526C77.7858 336.09 78.5035 336.718 79.1633 337.405C75.4569 342.493 73.4993 348.641 73.583 354.932C73.8199 362.552 77.3997 369.45 84.1907 375.415C92.7585 382.931 111 382.471 139.954 374.009C160.777 367.758 181.055 359.822 200.586 350.281C231.211 334.987 229.092 286.4 228.987 284.337C228.851 282.974 228.195 281.716 227.155 280.822C226.115 279.929 224.77 279.469 223.4 279.539C222.03 279.608 220.738 280.201 219.794 281.194C218.85 282.188 218.324 283.506 218.327 284.876C218.327 285.31 220.196 328.576 195.808 340.742C176.851 350.008 157.167 357.711 136.953 363.774C102.261 373.917 93.1928 369.122 91.245 367.401C86.744 363.459 84.4013 359.149 84.2434 354.59C84.2795 349.975 86.0017 345.532 89.0866 342.095C89.6929 341.498 90.145 340.763 90.4041 339.953C90.6631 339.142 90.7213 338.282 90.5738 337.444C89.6657 331.939 86.0596 329.075 83.6775 327.183C80.8479 324.936 80.3346 324.555 81.7296 320.337C82.1126 319.187 82.0919 317.941 81.6709 316.805C81.2499 315.668 80.4536 314.708 79.4133 314.083C72.1748 309.761 75.215 300.813 76.3074 298.172C79.8871 289.593 70.9246 283.207 63.0148 277.584C61.4224 276.454 59.7904 275.285 58.2901 274.142C55.3815 271.921 52.7493 269.78 52.5782 268.085C52.4466 266.863 53.131 263.788 59.0797 256.93C71.8458 242.228 82.2429 220.049 77.3865 206.135C76.6024 203.944 75.6837 201.803 74.6359 199.724C71.8721 194.048 69.8716 189.948 75.136 167.875C81.6507 140.547 90.2184 114.86 122.936 101.065C135.045 95.9538 242.885 53.3185 298.608 129.037C341.46 187.255 299.069 259.505 278.867 287.858L277.867 289.264C277.26 290.156 276.935 291.208 276.932 292.286V378.608C276.932 379.312 277.072 380.01 277.344 380.66C277.616 381.309 278.015 381.899 278.517 382.394C279.019 382.889 279.614 383.28 280.268 383.543C280.923 383.807 281.623 383.938 282.328 383.929Z" fill="#3963BC"/>
<path d="M278.235 250.268C278.328 247.076 277.972 244.868 277.406 244.868C278.718 243.272 279.877 241.557 280.868 239.744C280.563 243.371 279.674 246.925 278.235 250.268Z" fill="#CAF9F4"/>
<path d="M285.145 224.858C287.551 222.517 289.603 219.84 291.238 216.909C290.561 224.569 287.315 231.777 282.025 237.366C283.859 233.435 284.918 229.189 285.145 224.858Z" fill="#CAF9F4"/>
<path d="M110.96 154.868C111.599 150.899 112.936 147.074 114.908 143.569C114.816 144.554 114.763 145.539 114.763 146.538C114.766 147.891 114.85 149.242 115.013 150.585C113.544 151.897 112.188 153.329 110.96 154.868Z" fill="#CAF9F4"/>
<path d="M103.774 173.052C103.682 174.037 103.63 175.01 103.63 176.008C103.63 180.508 104.517 184.964 106.242 189.121C107.967 193.279 110.495 197.056 113.683 200.238C116.87 203.42 120.654 205.944 124.818 207.666C128.982 209.388 133.446 210.274 137.953 210.274C138.572 210.274 139.177 210.274 139.796 210.274C141.552 214.915 144.297 219.12 147.841 222.598C151.385 226.076 155.644 228.744 160.322 230.417C165.001 232.09 169.987 232.728 174.937 232.288C179.887 231.848 184.683 230.339 188.991 227.867C192.239 234.583 197.598 240.054 204.252 243.444C210.906 246.834 218.489 247.957 225.842 246.642C231.334 252.468 238.695 256.192 246.649 257.166C246.649 257.521 246.728 258.388 246.781 258.796C246.781 259.4 247.913 273.997 263.377 273.997C268.167 273.997 271.523 271.185 273.826 267.31C272.839 275.876 268.996 287.609 259.231 287.609C243.767 287.609 242.596 273.025 242.622 272.421C242.648 271.816 242.503 271.107 242.503 270.778C234.521 269.809 227.136 266.064 221.643 260.201C214.293 261.504 206.717 260.377 200.066 256.991C193.415 253.605 188.053 248.145 184.793 241.439C180.483 243.912 175.687 245.42 170.736 245.861C165.785 246.301 160.798 245.663 156.118 243.99C151.439 242.317 147.179 239.649 143.634 236.171C140.088 232.693 137.342 228.488 135.584 223.847C134.979 223.847 134.36 223.847 133.742 223.847C127.772 223.846 121.906 222.291 116.723 219.335C111.54 216.378 107.219 212.123 104.188 206.99C101.156 201.856 99.5186 196.022 99.4368 190.063C99.3551 184.104 100.832 178.227 103.722 173.013L103.774 173.052Z" fill="#EFEFEF"/>
<path d="M266.391 276.309C273.616 276.309 279.552 271.855 283.079 263.775C285.371 258.2 286.564 252.235 286.593 246.209C286.599 245.084 286.524 243.96 286.369 242.845C290.256 237.322 292.649 230.891 293.318 224.175C297.283 219.89 300.25 214.784 302.009 209.221C303.767 203.658 304.272 197.776 303.489 191.996C302.706 186.215 300.653 180.679 297.477 175.782C294.302 170.886 290.082 166.75 285.119 163.671C285.86 157.417 285.096 151.078 282.891 145.178C280.685 139.279 277.102 133.989 272.438 129.75C267.774 125.51 262.164 122.442 256.075 120.801C249.985 119.16 243.591 118.992 237.424 120.313C234.431 115.051 230.269 110.543 225.258 107.137C220.247 103.732 214.521 101.518 208.52 100.667C202.518 99.8152 196.401 100.349 190.639 102.226C184.876 104.104 179.621 107.275 175.278 111.497C169.356 107.205 162.359 104.633 155.063 104.066C147.767 103.498 140.457 104.957 133.94 108.281C127.423 111.606 121.955 116.665 118.141 122.9C114.327 129.135 112.315 136.302 112.329 143.608C112.329 144.265 112.329 144.922 112.329 145.592C107.033 151.084 103.438 157.985 101.976 165.467C100.514 172.948 101.246 180.693 104.086 187.769C106.925 194.845 111.751 200.953 117.983 205.357C124.215 209.762 131.588 212.277 139.217 212.6C143.645 221.589 151.321 228.569 160.699 232.134C170.077 235.698 180.459 235.582 189.755 231.809C193.358 237.26 198.265 241.729 204.033 244.812C209.8 247.895 216.247 249.495 222.789 249.467C224.151 249.468 225.513 249.398 226.869 249.257C231.897 253.895 238.039 257.158 244.702 258.73C245.508 262.991 247.501 266.94 250.453 270.121C252.538 272.195 255.03 273.815 257.773 274.88C260.516 275.946 263.45 276.432 266.391 276.309ZM275.867 244.645C276.183 247.838 275.353 257.85 271.26 263.039C270.73 263.846 270.008 264.508 269.158 264.967C268.308 265.426 267.357 265.666 266.391 265.667C256.797 265.667 255.349 257.928 255.151 255.997C255.151 255.813 255.151 255.642 255.151 255.458C255.151 255.274 255.151 255.117 255.151 254.959C255.151 254.801 255.151 254.342 255.086 254.118C255.094 252.819 254.619 251.563 253.754 250.592C252.889 249.622 251.694 249.006 250.4 248.863C243.672 248.031 237.45 244.87 232.817 239.928C232.211 239.282 231.454 238.797 230.612 238.517C229.771 238.238 228.874 238.172 228.001 238.325C226.336 238.615 224.65 238.764 222.96 238.772C217.514 238.794 212.174 237.275 207.558 234.392C202.941 231.508 199.237 227.378 196.875 222.48C196.563 221.815 196.115 221.223 195.56 220.741C195.005 220.26 194.355 219.9 193.652 219.684C192.949 219.469 192.208 219.403 191.478 219.491C190.748 219.579 190.044 219.818 189.413 220.194C185.772 222.306 181.715 223.599 177.522 223.985C173.329 224.371 169.103 223.839 165.138 222.427C161.172 221.015 157.563 218.756 154.561 215.808C151.56 212.861 149.238 209.295 147.758 205.36C147.367 204.299 146.644 203.393 145.695 202.775C144.747 202.157 143.624 201.861 142.494 201.931C141.968 201.931 141.454 201.931 140.928 201.931C135.065 201.945 129.335 200.181 124.498 196.873C119.661 193.565 115.943 188.869 113.838 183.406C111.732 177.943 111.338 171.971 112.706 166.279C114.075 160.587 117.142 155.444 121.502 151.531C122.139 150.965 122.629 150.253 122.929 149.457C123.229 148.66 123.331 147.803 123.226 146.958C123.064 145.848 122.967 144.73 122.937 143.608C122.926 137.927 124.593 132.368 127.728 127.627C130.864 122.886 135.33 119.172 140.567 116.95C145.805 114.729 151.582 114.097 157.178 115.134C162.773 116.172 167.938 118.832 172.027 122.783C172.567 123.297 173.209 123.692 173.911 123.943C174.613 124.194 175.36 124.296 176.104 124.241C176.848 124.187 177.572 123.977 178.23 123.627C178.887 123.276 179.465 122.792 179.924 122.205C183.024 118.203 187.123 115.084 191.81 113.159C196.497 111.234 201.608 110.571 206.632 111.236C211.656 111.901 216.417 113.87 220.439 116.948C224.462 120.026 227.605 124.104 229.553 128.774C230.078 130.022 231.057 131.024 232.294 131.578C233.53 132.131 234.931 132.195 236.213 131.757C241.089 130.078 246.326 129.731 251.382 130.75C256.439 131.769 261.13 134.118 264.972 137.554C268.814 140.991 271.666 145.389 273.235 150.295C274.803 155.2 275.03 160.435 273.893 165.458C273.632 166.627 273.773 167.851 274.293 168.93C274.814 170.01 275.683 170.883 276.762 171.41C280.946 173.438 284.579 176.443 287.354 180.17C290.128 183.898 291.963 188.237 292.701 192.822C293.44 197.407 293.061 202.102 291.597 206.51C290.133 210.918 287.626 214.908 284.29 218.144C283.327 219.089 282.754 220.359 282.684 221.705C282.397 227.891 280.111 233.819 276.169 238.601C275.529 239.38 275.124 240.325 275 241.325C274.877 242.325 275.04 243.34 275.472 244.251C275.621 244.391 275.744 244.54 275.84 244.698L275.867 244.645ZM279.815 247.141C280.03 247.155 280.245 247.155 280.46 247.141C280.22 247.176 279.978 247.194 279.736 247.194L279.815 247.141Z" fill="#3963BC"/>
<path d="M216.695 139.364C225.802 139.364 234.028 134.398 238.187 130.561C239.234 129.605 239.858 128.272 239.921 126.857C239.983 125.441 239.481 124.059 238.522 123.013C237.564 121.968 236.229 121.345 234.811 121.282C233.393 121.22 232.009 121.722 230.961 122.678C230.435 123.151 219.024 133.294 208.956 126.12C207.805 125.3 206.373 124.97 204.978 125.202C203.582 125.435 202.336 126.212 201.514 127.362C200.692 128.512 200.361 129.941 200.594 131.334C200.828 132.728 201.606 133.971 202.758 134.792C206.797 137.759 211.68 139.361 216.695 139.364Z" fill="#3963BC"/>
<path d="M161.103 140.547C167.565 140.547 172.632 138.786 176.211 135.291C182.989 128.63 181.252 118.947 181.042 117.869C180.766 116.476 179.947 115.248 178.764 114.457C177.582 113.666 176.134 113.377 174.737 113.652C173.341 113.927 172.112 114.745 171.32 115.925C170.527 117.105 170.237 118.551 170.513 119.945C170.513 120.103 171.342 125.109 168.644 127.71C165.946 130.312 160.471 130.575 152.851 128.867C152.155 128.682 151.429 128.64 150.716 128.742C150.003 128.845 149.319 129.091 148.703 129.464C148.088 129.838 147.555 130.331 147.135 130.916C146.716 131.5 146.419 132.163 146.263 132.865C146.107 133.567 146.094 134.293 146.226 134.999C146.358 135.706 146.632 136.379 147.031 136.977C147.43 137.576 147.946 138.088 148.548 138.482C149.15 138.877 149.826 139.145 150.535 139.272C154.001 140.078 157.544 140.506 161.103 140.547Z" fill="#3963BC"/>
<path d="M143.77 211.233C144.566 211.241 145.353 211.071 146.075 210.737C146.796 210.403 147.434 209.913 147.942 209.302C148.048 209.157 152.022 204.441 157.563 203.981C161.038 203.692 164.67 205.176 168.342 208.382C169.406 209.313 170.798 209.783 172.209 209.689C173.621 209.595 174.938 208.946 175.87 207.883C176.802 206.82 177.273 205.431 177.179 204.022C177.085 202.612 176.434 201.298 175.37 200.368C169.382 195.112 163.025 192.786 156.523 193.378C146.521 194.284 140.283 201.787 139.598 202.575C138.971 203.358 138.578 204.303 138.464 205.3C138.351 206.296 138.522 207.305 138.959 208.208C139.395 209.112 140.078 209.874 140.929 210.407C141.781 210.94 142.766 211.222 143.77 211.22V211.233Z" fill="#3963BC"/>
<path d="M262.797 192.681C264.214 192.681 265.573 192.119 266.576 191.119C267.578 190.119 268.141 188.762 268.141 187.347C268.141 173.131 280.235 172.198 281.617 172.145C282.317 172.115 283.004 171.948 283.64 171.652C284.275 171.357 284.845 170.94 285.319 170.424C285.792 169.909 286.16 169.305 286.4 168.648C286.64 167.991 286.747 167.293 286.717 166.594C286.687 165.896 286.519 165.21 286.223 164.576C285.928 163.941 285.509 163.372 284.993 162.899C284.477 162.426 283.872 162.06 283.214 161.82C282.556 161.581 281.857 161.473 281.157 161.503C272.957 161.845 257.467 167.691 257.467 187.347C257.465 188.047 257.602 188.74 257.869 189.387C258.136 190.035 258.528 190.623 259.024 191.118C259.519 191.614 260.107 192.007 260.754 192.275C261.402 192.543 262.096 192.681 262.797 192.681Z" fill="#3963BC"/>
<path d="M288.106 225.068C289.24 225.066 290.345 224.704 291.259 224.034C292.173 223.363 292.85 222.42 293.192 221.34C293.534 220.26 293.522 219.099 293.159 218.027C292.796 216.954 292.1 216.024 291.172 215.372C289.343 214.058 284.421 209.63 283.684 204.743C283.53 203.414 283.657 202.069 284.056 200.793C284.455 199.517 285.117 198.338 286 197.332C286.432 196.779 286.751 196.145 286.937 195.468C287.124 194.792 287.176 194.085 287.089 193.388C287.002 192.691 286.779 192.019 286.432 191.408C286.085 190.798 285.62 190.262 285.066 189.83C284.511 189.399 283.876 189.081 283.198 188.894C282.52 188.708 281.812 188.656 281.115 188.743C280.417 188.829 279.743 189.052 279.131 189.399C278.52 189.746 277.983 190.209 277.551 190.763C275.777 192.915 274.47 195.411 273.711 198.093C272.952 200.775 272.758 203.585 273.142 206.346C274.721 216.594 283.999 223.321 285.052 224.043C285.938 224.695 287.006 225.054 288.106 225.068Z" fill="#3963BC"/>
<path d="M231.948 232.544C233.033 232.544 234.091 232.214 234.983 231.599C235.876 230.984 236.559 230.112 236.943 229.1C237.328 228.088 237.394 226.983 237.134 225.932C236.874 224.881 236.3 223.933 235.488 223.216C208.548 199.566 188.228 221.035 188.03 221.258C187.555 221.776 187.186 222.382 186.946 223.042C186.705 223.701 186.597 224.402 186.627 225.104C186.658 225.805 186.827 226.494 187.124 227.13C187.421 227.767 187.841 228.338 188.359 228.813C188.878 229.287 189.485 229.655 190.146 229.896C190.807 230.136 191.508 230.244 192.211 230.213C192.914 230.183 193.604 230.014 194.241 229.718C194.879 229.421 195.451 229.002 195.927 228.484C197.322 227.013 209.864 214.833 228.474 231.217C229.435 232.061 230.668 232.532 231.948 232.544Z" fill="#3963BC"/>
<path d="M137.058 178.859C138.429 178.843 139.741 178.3 140.721 177.344C141.702 176.387 142.275 175.09 142.322 173.722C143.086 152.621 127.306 144.002 118.843 142.399C117.447 142.131 116.001 142.427 114.824 143.223C113.647 144.019 112.834 145.249 112.566 146.643C112.297 148.037 112.594 149.48 113.391 150.656C114.188 151.831 115.42 152.642 116.817 152.91C118.435 153.239 132.254 156.589 131.662 173.394C131.612 174.804 132.124 176.177 133.087 177.211C134.049 178.246 135.382 178.857 136.795 178.912L137.058 178.859Z" fill="#3963BC"/>
<path d="M249.623 259.531C249.981 259.529 250.338 259.494 250.689 259.426C252.076 259.144 253.294 258.325 254.076 257.147C254.859 255.97 255.141 254.531 254.861 253.146C254.69 252.279 251.071 232.833 266.272 227.066C267.595 226.564 268.664 225.558 269.244 224.269C269.824 222.981 269.867 221.515 269.365 220.194C268.862 218.873 267.855 217.806 266.564 217.227C265.273 216.648 263.804 216.605 262.482 217.106C243.49 224.306 242.345 245.21 244.398 255.209C244.619 256.429 245.264 257.532 246.22 258.323C247.176 259.114 248.382 259.542 249.623 259.531Z" fill="#3963BC"/>
<path d="M230.29 188.608C251.347 188.608 270.102 176.783 271.233 176.034C271.846 175.666 272.379 175.178 272.799 174.6C273.22 174.022 273.52 173.366 273.681 172.67C273.843 171.974 273.863 171.253 273.74 170.549C273.617 169.846 273.354 169.174 272.966 168.574C272.578 167.973 272.073 167.457 271.482 167.055C270.89 166.653 270.224 166.374 269.522 166.234C268.82 166.095 268.098 166.097 267.397 166.241C266.696 166.385 266.032 166.668 265.443 167.074C265.048 167.337 231.435 188.451 208.298 170.871C207.172 170.015 205.752 169.641 204.35 169.831C202.949 170.021 201.679 170.759 200.823 171.883C199.966 173.006 199.591 174.424 199.781 175.824C199.971 177.223 200.71 178.49 201.836 179.345C210.016 185.523 220.034 188.785 230.29 188.608Z" fill="#3963BC"/>
<path d="M245.018 186.362C246.318 186.349 247.568 185.865 248.537 184.999C249.505 184.134 250.126 182.946 250.282 181.658C250.596 179.285 250.406 176.873 249.726 174.578C249.046 172.283 247.89 170.156 246.334 168.335C238.437 158.889 221.433 157.667 219.525 157.548C218.145 157.523 216.808 158.032 215.796 158.969C214.783 159.905 214.173 161.197 214.093 162.573C214.013 163.949 214.469 165.302 215.367 166.349C216.264 167.397 217.533 168.057 218.907 168.191C222.565 168.414 233.949 170.175 238.161 175.194C238.778 175.908 239.229 176.749 239.482 177.658C239.734 178.567 239.782 179.52 239.622 180.449C239.535 181.194 239.606 181.948 239.83 182.664C240.055 183.379 240.427 184.04 240.923 184.602C241.42 185.165 242.029 185.617 242.712 185.929C243.395 186.241 244.135 186.406 244.886 186.414L245.018 186.362Z" fill="#3963BC"/>
<path d="M201.323 198.607H202.008C202.73 198.627 203.448 198.5 204.12 198.235C204.792 197.97 205.403 197.571 205.916 197.064C206.429 196.556 206.834 195.95 207.106 195.282C207.377 194.613 207.511 193.897 207.497 193.176C207.484 192.455 207.324 191.744 207.028 191.086C206.732 190.429 206.305 189.838 205.773 189.349C205.242 188.861 204.616 188.485 203.935 188.245C203.254 188.005 202.531 187.905 201.81 187.951C192.598 188.135 183.727 183.182 180.371 175.943C176.818 168.27 179.568 158.718 188.11 149.048C188.611 148.529 189.002 147.915 189.259 147.242C189.516 146.568 189.634 145.85 189.606 145.13C189.577 144.41 189.403 143.704 189.093 143.053C188.783 142.402 188.345 141.82 187.804 141.343C187.263 140.866 186.631 140.504 185.945 140.277C185.26 140.051 184.536 139.965 183.817 140.026C183.098 140.087 182.398 140.292 181.761 140.63C181.123 140.968 180.561 141.431 180.108 141.992C164.565 159.585 167.526 173.617 170.672 180.41C175.752 191.354 188.004 198.607 201.323 198.607Z" fill="#3963BC"/>
<path d="M171.882 177.769C172.658 177.769 173.448 177.769 174.251 177.677C175.627 177.521 176.89 176.837 177.771 175.77C178.652 174.702 179.084 173.335 178.975 171.956C178.865 170.577 178.224 169.294 177.185 168.379C176.147 167.463 174.793 166.986 173.408 167.048C167.289 167.534 163.985 165.103 162.301 162.975C161.34 161.833 160.662 160.482 160.321 159.03C159.98 157.578 159.987 156.067 160.34 154.618C160.578 153.944 160.677 153.228 160.633 152.514C160.588 151.8 160.4 151.102 160.08 150.462C159.759 149.822 159.313 149.253 158.768 148.788C158.223 148.324 157.59 147.973 156.906 147.758C156.223 147.543 155.503 147.468 154.79 147.536C154.076 147.604 153.384 147.815 152.754 148.156C152.124 148.497 151.569 148.961 151.122 149.52C150.675 150.08 150.346 150.723 150.153 151.412C149.266 154.526 149.147 157.807 149.807 160.976C150.467 164.145 151.886 167.108 153.943 169.61C156.101 172.258 158.843 174.373 161.955 175.788C165.066 177.204 168.464 177.882 171.882 177.769Z" fill="#3963BC"/>
<path d="M247.781 216.357C249.155 216.358 250.474 215.822 251.458 214.865C252.442 213.907 253.011 212.604 253.046 211.233C253.252 208.257 252.586 205.285 251.13 202.679C249.675 200.073 247.491 197.946 244.846 196.557C238.674 193.364 230.777 194.284 224.71 198.896C223.642 199.772 222.956 201.027 222.795 202.397C222.635 203.768 223.012 205.147 223.848 206.245C224.685 207.344 225.915 208.076 227.28 208.288C228.646 208.5 230.041 208.176 231.172 207.383C232.367 206.378 233.817 205.723 235.362 205.491C236.907 205.259 238.486 205.459 239.924 206.07C240.777 206.527 241.469 207.235 241.906 208.097C242.344 208.959 242.506 209.934 242.372 210.892C242.322 212.304 242.836 213.679 243.801 214.714C244.766 215.748 246.103 216.358 247.518 216.41L247.781 216.357Z" fill="#3963BC"/>
<path d="M248.215 158.849C252.057 158.827 255.816 157.725 259.06 155.669C260.184 154.885 260.963 153.7 261.236 152.358C261.509 151.016 261.255 149.621 260.526 148.462C259.797 147.302 258.65 146.466 257.321 146.128C255.992 145.789 254.584 145.974 253.387 146.643C252.111 147.542 250.61 148.07 249.052 148.17C247.493 148.269 245.937 147.937 244.556 147.208C243.748 146.674 243.121 145.905 242.762 145.006C242.402 144.107 242.325 143.12 242.543 142.176C242.58 140.854 242.122 139.566 241.259 138.562C240.396 137.559 239.19 136.912 237.876 136.748C236.561 136.584 235.233 136.914 234.149 137.675C233.066 138.436 232.304 139.572 232.014 140.862C231.539 143.792 231.922 146.797 233.117 149.515C234.313 152.233 236.27 154.548 238.752 156.182C241.584 157.961 244.87 158.887 248.215 158.849Z" fill="#3963BC"/>
</g>
</svg>
